<svg width="277" height="58" viewBox="0 0 277 58" fill="none" xmlns="http://www.w3.org/2000/svg">
<g clip-path="url(#clip0_242_614)">
<path d="M46.6153 15.6205L48.3223 13.9068V10.4136L44.8426 6.92045H38.0145L31.055 0H24.1612L17.2674 6.92045H10.3735L6.89381 10.4136V13.8409L8.60085 15.5545L0 24.2545V34.6682L20.7471 55.4955H34.5347L55.2818 34.6682V24.2545L46.6153 15.6205ZM30.858 48.5091H24.3581L21.141 45.2795L27.6409 38.7545L30.858 41.9841L32.8277 43.9614L34.0751 45.2136L30.858 48.5091ZM41.4285 27.7477V34.6682L34.5347 41.5886L27.6409 34.6682L20.7471 41.5886L13.7876 34.6682V27.7477L10.3079 24.2545L24.0955 10.4136H30.9893L44.777 24.2545L41.4285 27.7477Z" fill="#1A1A1A"/>
<path d="M38.0144 20.8273V24.2545H34.5347V31.175L27.6409 38.1614L20.7471 31.175V24.2545H17.2673V20.8273H24.1611V30.5818H31.055V20.8273H38.0144Z" fill="#1A1A1A"/>
<path d="M75.8976 21.4864H79.0491V34.0091H91.5236V37.1727H75.8976V21.4864Z" fill="#1A1A1A"/>
<path d="M108.463 21.4864V37.1727H105.311V21.4864H108.463Z" fill="#1A1A1A"/>
<path d="M122.316 37.1068V21.4864H137.942V37.1727H122.316V37.1068ZM134.856 34.0091V24.5841H125.467V34.0091H134.856Z" fill="#1A1A1A"/>
<path d="M99.1396 21.4864V24.65H114.766V21.4864H99.1396ZM99.1396 34.0091V37.1727H114.766V34.0091H99.1396Z" fill="#1A1A1A"/>
<path d="M145.558 37.1068V21.4864H148.709L158.098 32.625V21.4864H161.25V37.1727H158.098L148.709 26.3636V37.1068H145.558Z" fill="#1A1A1A"/>
<path d="M168.537 21.4864H184.163V24.65H171.689V34.075H184.163V37.2386H168.537V21.4864ZM181.012 30.8454H178.123V27.6818H181.012V30.8454ZM181.012 34.0091V27.7477H184.163V34.0091H181.012Z" fill="#1A1A1A"/>
<path d="M191.779 37.1068V21.4864H207.405V30.9114H194.931V37.1727H191.779V37.1068ZM194.865 24.5841V27.7477H204.254V24.5841H194.865ZM202.875 30.8454L208.39 37.1068H204.517L199.002 30.8454H202.875Z" fill="#1A1A1A"/>
<path d="M214.956 37.1068V21.4864H230.582V37.1727H214.956V37.1068ZM227.496 34.0091V24.5841H218.107V34.0091H227.496Z" fill="#1A1A1A"/>
<path d="M241.349 21.4864V34.0091H250.738V21.4864H253.889V37.1727H238.263V21.4864H241.349Z" fill="#1A1A1A"/>
<path d="M261.44 37.1068V21.4864H277.066V30.9114H264.591V37.1727H261.44V37.1068ZM264.526 24.5841V27.7477H273.914V24.5841H264.526Z" fill="#1A1A1A"/>
<path d="M78.9178 51.8704V49.3H80.2965V55.4295H78.9178V52.8591C78.5238 53.1886 77.9986 53.3863 77.4077 53.3863C76.0289 53.3863 75.1097 52.6613 75.1097 51.0136V49.3H76.4885V50.8818C76.4885 51.9363 76.8824 52.2659 77.736 52.2659C78.1956 52.2659 78.5895 52.1341 78.9178 51.8704Z" fill="#29ABE2"/>
<path d="M87.453 52.925H82.9228C83.0541 53.8477 83.7106 54.5068 84.6954 54.5068C85.2863 54.5068 85.8116 54.2432 86.2055 53.7159L87.1903 54.4409C86.5994 55.2318 85.7459 55.6932 84.6954 55.6932C82.7914 55.6932 81.4783 54.375 81.4783 52.4636C81.4783 50.6182 82.6601 49.2341 84.4985 49.2341C86.2712 49.2341 87.453 50.5523 87.453 52.4636C87.5186 52.5295 87.5186 52.7932 87.453 52.925ZM82.9884 51.8045H86.1399C86.0742 50.8818 85.4177 50.2886 84.5641 50.2886C83.645 50.2886 83.0541 50.8818 82.9884 51.8045Z" fill="#29ABE2"/>
<path d="M91.458 49.1682C92.7054 49.1682 93.5589 49.7614 94.1498 50.6841L93.0993 51.2773C92.7054 50.6841 92.2458 50.3545 91.5893 50.3545C90.6044 50.3545 89.9479 51.1455 89.9479 52.4636C89.9479 53.7818 90.6044 54.5727 91.5893 54.5727C92.3115 54.5727 92.7054 54.2432 93.0993 53.65L94.1498 54.2432C93.6246 55.1659 92.7054 55.7591 91.458 55.7591C89.6196 55.7591 88.4378 54.4409 88.4378 52.5295C88.4378 50.6182 89.554 49.1682 91.458 49.1682Z" fill="#29ABE2"/>
<path d="M96.7104 50.4204H94.5438V49.3H100.19V50.4204H98.0235V55.4295H96.6447V50.4204H96.7104Z" fill="#29ABE2"/>
<path d="M105.443 51.5409V49.3H106.821V55.4295H105.443V52.6613H102.685V55.4295H101.306V49.3H102.685V51.5409H105.443Z" fill="#29ABE2"/>
<path d="M108.397 55.4954V49.3659H109.776V51.5409H110.761C112.402 51.5409 113.321 52.2659 113.321 53.5182C113.321 54.7704 112.402 55.4954 110.761 55.4954H108.397ZM109.776 54.375H110.761C111.548 54.375 111.942 54.1114 111.942 53.5182C111.942 52.925 111.548 52.6614 110.761 52.6614H109.776V54.375ZM114.24 55.4954H115.619V49.3659H114.24V55.4954Z" fill="#29ABE2"/>
<path d="M121.528 55.4954V51.3432L118.574 55.4954H117.195V49.3659H118.574V53.5182L121.528 49.3659H122.907V55.4954H121.528ZM118.114 46.7954L119.033 46.5977C119.23 47.2568 119.558 47.5204 120.018 47.5204C120.478 47.5204 120.872 47.2568 121.003 46.5977L121.922 46.7954C121.659 47.7841 121.068 48.4432 120.018 48.4432C119.033 48.4432 118.377 47.7841 118.114 46.7954Z" fill="#29ABE2"/>
<path d="M131.311 55.6273C130.589 55.6273 129.932 55.3636 129.472 54.9023V58H128.028V49.3H129.407V49.8932C129.866 49.4318 130.523 49.1682 131.245 49.1682C132.952 49.1682 133.871 50.4205 133.871 52.3977C133.937 54.375 132.952 55.6273 131.311 55.6273ZM132.493 52.3977C132.493 51.1455 131.967 50.3545 130.917 50.3545C130.392 50.3545 129.801 50.6182 129.407 51.0136V53.8477C129.801 54.2432 130.392 54.5068 130.917 54.5068C132.033 54.4409 132.493 53.65 132.493 52.3977Z" fill="#29ABE2"/>
<path d="M140.831 52.925H136.301C136.432 53.8477 137.088 54.5068 138.073 54.5068C138.664 54.5068 139.189 54.2432 139.583 53.7159L140.568 54.4409C139.977 55.2318 139.124 55.6932 138.073 55.6932C136.169 55.6932 134.856 54.375 134.856 52.4636C134.856 50.6182 136.038 49.2341 137.876 49.2341C139.649 49.2341 140.831 50.5523 140.831 52.4636C140.831 52.5295 140.831 52.7932 140.831 52.925ZM136.301 51.8045H139.452C139.386 50.8818 138.73 50.2886 137.876 50.2886C137.023 50.2886 136.432 50.8818 136.301 51.8045Z" fill="#29ABE2"/>
<path d="M143.457 51.5409V55.4295H142.078V49.3H143.391L145.558 52.6613L147.725 49.3H149.038V55.4295H147.659V51.5409L145.952 54.1773H145.23L143.457 51.5409Z" fill="#29ABE2"/>
<path d="M153.371 55.6273C151.533 55.6273 150.351 54.3091 150.351 52.3977C150.351 50.4864 151.533 49.1682 153.371 49.1682C155.209 49.1682 156.391 50.4864 156.391 52.3977C156.391 54.3091 155.209 55.6273 153.371 55.6273ZM153.371 50.2886C152.32 50.2886 151.73 51.0795 151.73 52.3977C151.73 53.65 152.32 54.5068 153.371 54.5068C154.421 54.5068 155.012 53.7159 155.012 52.3977C155.012 51.0795 154.356 50.2886 153.371 50.2886Z" fill="#29ABE2"/>
<path d="M161.841 51.5409V49.3H163.219V55.4295H161.841V52.6613H159.083V55.4295H157.704V49.3H159.083V51.5409H161.841Z" fill="#29ABE2"/>
<path d="M166.305 50.4204H164.138V49.3H169.785V50.4204H167.618V55.4295H166.239V50.4204H166.305Z" fill="#29ABE2"/>
</g>
<defs>
<clipPath id="clip0_242_614">
<rect width="277" height="58" fill="white"/>
</clipPath>
</defs>
</svg>
